<?xml version="1.0" encoding="iso-8859-1"?>
<!-- Generator: Adobe Illustrator 19.0.0, SVG Export Plug-In . SVG Version: 6.00 Build 0)  -->
<svg version="1.1" id="Layer_1" xmlns="http://www.w3.org/2000/svg" xmlns:xlink="http://www.w3.org/1999/xlink" x="0px" y="0px"
	 viewBox="0 0 512 512" style="enable-background:new 0 0 512 512;" xml:space="preserve">
<path style="fill:#4DBFBF;" d="M83.478,0C55.859,0,33.391,22.468,33.391,50.087v411.826c0,27.619,22.468,50.087,50.087,50.087
	h83.478V0H83.478z"/>
<path style="fill:#E6563A;" d="M461.913,0H133.565v512h328.348C489.532,512,512,489.532,512,461.913V50.087
	C512,22.468,489.532,0,461.913,0z"/>
<path style="fill:#D9472B;" d="M461.913,0h-139.13v512h139.13C489.532,512,512,489.532,512,461.913V50.087
	C512,22.468,489.532,0,461.913,0z"/>
<g>
	<path style="fill:#CCE8FF;" d="M83.478,122.435H16.696C7.479,122.435,0,114.962,0,105.739s7.479-16.696,16.696-16.696h66.783
		c9.217,0,16.696,7.473,16.696,16.696S92.695,122.435,83.478,122.435z"/>
	<path style="fill:#CCE8FF;" d="M83.478,222.609H16.696C7.479,222.609,0,215.136,0,205.913s7.479-16.696,16.696-16.696h66.783
		c9.217,0,16.696,7.473,16.696,16.696S92.695,222.609,83.478,222.609z"/>
	<path style="fill:#CCE8FF;" d="M83.478,322.783H16.696C7.479,322.783,0,315.31,0,306.087s7.479-16.696,16.696-16.696h66.783
		c9.217,0,16.696,7.473,16.696,16.696S92.695,322.783,83.478,322.783z"/>
	<path style="fill:#CCE8FF;" d="M83.478,422.957H16.696C7.479,422.957,0,415.484,0,406.261c0-9.223,7.479-16.696,16.696-16.696
		h66.783c9.217,0,16.696,7.473,16.696,16.696C100.174,415.484,92.695,422.957,83.478,422.957z"/>
</g>
<path style="fill:#FFEFD9;" d="M428.522,122.435H217.043c-9.217,0-16.696-7.473-16.696-16.696s7.479-16.696,16.696-16.696h211.478
	c9.217,0,16.696,7.473,16.696,16.696S437.739,122.435,428.522,122.435z"/>
<path style="fill:#FFD9B3;" d="M428.522,89.043H322.783v33.391h105.739c9.217,0,16.696-7.473,16.696-16.696
	S437.739,89.043,428.522,89.043z"/>
<path style="fill:#FFEFD9;" d="M322.783,412.028c-3.87,0-7.739-1.342-10.87-4.021c-12.914-11.07-24.989-20.858-36.021-29.804
	c-44.043-35.706-75.87-61.506-75.87-103.309c0-41.288,30.631-73.63,69.728-73.63c25.445,0,42.326,13.059,53.032,26.755
	c10.706-13.696,27.587-26.755,53.032-26.755c39.098,0,69.728,32.343,69.728,73.63c0,41.805-31.826,67.603-75.87,103.309
	c-11.032,8.946-23.109,18.734-36.021,29.804C330.522,410.685,326.653,412.028,322.783,412.028z"/>
<path style="fill:#FFD9B3;" d="M333.653,408.005c12.914-11.07,24.989-20.858,36.021-29.804
	c44.043-35.706,75.869-61.506,75.869-103.309c0-41.288-30.631-73.63-69.728-73.63c-25.445,0-42.326,13.059-53.032,26.755v184.011
	C326.653,412.028,330.522,410.685,333.653,408.005z"/>
<g>
</g>
<g>
</g>
<g>
</g>
<g>
</g>
<g>
</g>
<g>
</g>
<g>
</g>
<g>
</g>
<g>
</g>
<g>
</g>
<g>
</g>
<g>
</g>
<g>
</g>
<g>
</g>
<g>
</g>
</svg>
